Coordinates
version=1
nRows=26
nColumns=18
inDegrees=yes

Units are S.I. units (second, meters, Newtons, ...)
Angles are in degrees.

endheader
time	ground_thorax_rot_x	ground_thorax_rot_y	ground_thorax_rot_z	ground_thorax_tx	ground_thorax_ty	ground_thorax_tz	clav_prot	clav_elev	scapula_abduction	scapula_elevation	scapula_upward_rot	scapula_winging	plane_elv	shoulder_elv	axial_rot	elbow_flexion	pro_sup
      0.00000000	      1.58852105	     -3.30949957	     -8.81127202	     -0.00423131	      0.00403036	     -0.00078352	    -23.55556950	     -5.71167033	    -13.63562710	     -5.26731821	     13.35631760	      5.82349226	    -31.91707423	     15.79784862	     52.44530053	      0.00000000	     34.32000000
      0.01000000	      1.36090164	     -3.21347667	     -8.82167785	     -0.00423131	      0.00403036	     -0.00078352	    -23.59694352	     -5.95239962	    -13.64962592	     -5.45544375	     13.35794146	      5.91478526	    -33.36276648	     15.65554920	     54.13632988	      0.00000000	     34.32000000
      0.02000000	      1.47270130	     -3.11801143	     -8.96545275	     -0.00423131	      0.00403036	     -0.00078352	    -23.69076315	     -5.92318070	    -13.80910235	     -5.44247692	     13.37234544	      5.90137666	    -32.26233516	     15.83795409	     50.98381205	      0.00000000	     34.32000000
      0.03000000	      1.57353413	     -3.35431795	     -8.85920744	     -0.00423131	      0.00403036	     -0.00078352	    -23.49867740	     -5.79111811	    -13.54045505	     -5.31529644	     13.31925001	      5.86073699	    -31.35738126	     16.31564618	     46.39181887	      0.00000000	     34.32000000
      0.04000000	      1.53427464	     -3.37731137	     -8.82783959	     -0.00423131	      0.00403036	     -0.00078352	    -23.51106443	     -5.75883463	    -13.57148848	     -5.29036396	     13.31589573	      5.85007130	    -31.32973440	     16.29792419	     46.46392059	      0.00000000	     34.32000000
      0.05000000	      1.62495152	     -3.31802503	     -8.75397132	     -0.00423131	      0.00403036	     -0.00078352	    -23.59180306	     -5.56071658	    -13.55299091	     -5.23359349	     13.66597332	      5.69305184	    -33.91589542	     15.13078050	     59.65968293	      0.00000000	     34.32000000
      0.06000000	      1.66326948	     -3.30920099	     -8.75505110	     -0.00423131	      0.00403036	     -0.00078352	    -23.56795276	     -5.54234788	    -13.49885792	     -5.22576130	     13.69593129	      5.67866081	    -33.72925758	     15.21524602	     58.68439267	      0.00000000	     34.32000000
      0.07000000	      1.63864086	     -3.28216694	     -8.73006850	     -0.00423131	      0.00403036	     -0.00078352	    -23.53773978	     -5.52434400	    -13.46259507	     -5.20500130	     13.67636143	      5.67628180	    -33.97913517	     15.18596769	     59.37651895	      0.00000000	     34.32000000
      0.08000000	      1.64349391	     -3.34510203	     -8.74393909	     -0.00423131	      0.00403036	     -0.00078352	    -23.47227421	     -5.53009011	    -13.39749941	     -5.18376601	     13.59263583	      5.69752541	    -33.57215900	     15.30603999	     58.25979299	      0.00000000	     34.32000000
      0.09000000	      1.66481544	     -3.36353009	     -8.73588153	     -0.00423131	      0.00403036	     -0.00078352	    -23.44025640	     -5.48564430	    -13.29104851	     -5.17499484	     13.69852003	      5.65486174	    -34.07582763	     15.18583329	     59.47180531	      0.00000000	     34.32000000
      0.10000000	      1.67082125	     -3.46074435	     -8.75921372	     -0.00423131	      0.00403036	     -0.00078352	    -23.33089002	     -5.51295805	    -13.07099289	     -5.20041544	     13.74183435	      5.65228748	    -34.14477007	     15.19886281	     59.22751146	      0.00000000	     34.32000000
      0.11000000	      1.83299664	     -3.77098233	     -8.64555014	     -0.00423131	      0.00403036	     -0.00078352	    -22.99923067	     -5.40212559	    -12.62332352	     -5.05194425	     13.57489069	      5.64290531	    -32.55763425	     15.84600141	     54.68896046	      0.00000000	     34.32000000
      0.12000000	      1.62247223	     -3.55599118	     -8.75491140	     -0.00423131	      0.00403036	     -0.00078352	    -23.19034927	     -5.60848688	    -12.85884839	     -5.24198610	     13.65192392	      5.70553578	    -33.83420033	     15.64573516	     55.36486799	      0.00000000	     34.32000000
      0.13000000	      1.67935140	     -3.49221349	     -8.80919662	     -0.00423131	      0.00403036	     -0.00078352	    -23.28050660	     -5.62001022	    -13.05545470	     -5.23689737	     13.57654303	      5.73043614	    -32.81531169	     15.91012949	     52.48206823	      0.00000000	     34.32000000
      0.14000000	      1.61548974	     -3.48428867	     -8.80806978	     -0.00423131	      0.00403036	     -0.00078352	    -23.30900539	     -5.70643377	    -13.13485419	     -5.28260042	     13.48952598	      5.78393994	    -32.58905951	     16.06558059	     50.94895915	      0.00000000	     34.32000000
      0.15000000	      1.65773245	     -3.53350190	     -8.78138747	     -0.00423131	      0.00403036	     -0.00078352	    -23.31043362	     -5.68529841	    -13.15840077	     -5.25931763	     13.46207004	      5.78308361	    -32.08213650	     16.16147428	     50.23701095	      0.00000000	     34.32000000
      0.16000000	      1.56446775	     -3.42556610	     -8.78888591	     -0.00423131	      0.00403036	     -0.00078352	    -23.33111586	     -5.74345902	    -13.24449510	     -5.27676049	     13.35178863	      5.83156287	    -32.09570841	     16.30031314	     48.87222159	      0.00000000	     34.32000000
      0.17000000	      1.58660978	     -3.44277892	     -8.77353995	     -0.00423131	      0.00403036	     -0.00078352	    -23.33457674	     -5.75285510	    -13.24293076	     -5.28659753	     13.36106263	      5.83322043	    -32.09009096	     16.28883167	     48.89331978	      0.00000000	     34.32000000
      0.18000000	      1.49159293	     -3.43788851	     -8.84434581	     -0.00423131	      0.00403036	     -0.00078352	    -23.39135005	     -5.83097352	    -13.23206310	     -5.39031981	     13.51629401	      5.82653269	    -32.97019446	     15.97841574	     50.80879113	      0.00000000	     34.32000000
      0.19000000	      1.52257414	     -3.47373030	     -8.82738028	     -0.00423131	      0.00403036	     -0.00078352	    -23.38920661	     -5.81551711	    -13.24282684	     -5.37341082	     13.49749913	      5.82513081	    -32.94305459	     15.92557663	     50.83117334	      0.00000000	     34.32000000
      0.20000000	      1.62063859	     -3.42387072	     -8.75511874	     -0.00423131	      0.00403036	     -0.00078352	    -23.50405470	     -5.58638912	    -13.41265204	     -5.24046438	     13.63741101	      5.70795802	    -33.95072117	     15.12039552	     59.54757260	      0.00000000	     34.32000000
      0.21000000	      1.62070592	     -3.50190929	     -8.78588381	     -0.00423131	      0.00403036	     -0.00078352	    -23.39901290	     -5.79340024	    -13.48382732	     -5.25941491	     13.12076184	      5.90770518	    -31.15458155	     16.13512052	     51.48171668	      0.00000000	     34.32000000
      0.22000000	      1.66646688	     -3.44900231	     -8.76395533	     -0.00423131	      0.00403036	     -0.00078352	    -23.53627893	     -5.68192020	    -13.42869733	     -5.32333385	     13.66622820	      5.73724394	    -34.01980726	     15.23426872	     59.45913843	      0.00000000	     34.32000000
      0.23000000	      1.61358625	     -3.45614482	     -8.86569335	     -0.00423131	      0.00403036	     -0.00078352	    -23.52484671	     -5.87111030	    -13.61228263	     -5.35827643	     13.24135483	      5.91060884	    -31.55648456	     16.01789639	     51.35384639	      0.00000000	     34.32000000
      0.24000000	      1.63043164	     -3.42920446	     -8.76572371	     -0.00423131	      0.00403036	     -0.00078352	    -23.60611137	     -5.72848929	    -13.55730001	     -5.35483100	     13.63289372	      5.76392621	    -34.20766067	     15.06769597	     60.23052901	      0.00000000	     34.32000000
      0.25000000	      1.39037486	     -3.45213332	     -8.77181989	     -0.00423131	      0.00403036	     -0.00078352	    -23.51831396	     -5.99601374	    -13.56512735	     -5.45700789	     13.25319971	      5.95494461	    -32.91975352	     15.69493218	     52.19038705	      0.00000000	     34.32000000
